<?xml version="1.0" standalone="no"?>
<!DOCTYPE svg PUBLIC "-//W3C//DTD SVG 20010904//EN"
 "http://www.w3.org/TR/2001/REC-SVG-20010904/DTD/svg10.dtd">
<svg version="1.0" xmlns="http://www.w3.org/2000/svg"
 width="3519.000000pt" height="2600.000000pt" viewBox="0 0 1519.000000 1600.000000"
 preserveAspectRatio="xMidYMid meet">

<g transform="translate(0.000000,1600.000000) scale(0.100000,-0.100000)"
fill="#000000" stroke="none">
<path d="M9140 15594 c-14 -2 -56 -9 -95 -15 -727 -112 -1394 -769 -1552
-1528 -21 -105 -26 -153 -26 -286 0 -272 42 -458 227 -1000 52 -153 93 -281
91 -283 -2 -3 -20 9 -39 26 -119 104 -281 186 -486 245 l-75 21 -1951 3 -1951
3 -48 -32 c-28 -19 -57 -50 -69 -73 l-21 -40 -5 -2290 -5 -2290 -200 -5 c-221
-6 -236 -9 -293 -74 -91 -104 -54 -268 73 -327 36 -17 70 -19 361 -19 l320 0
52 26 c41 20 59 37 82 78 l30 51 0 978 0 977 1139 0 c668 0 1203 -4 1293 -10
636 -43 1087 -144 1450 -326 96 -48 239 -136 256 -157 25 -30 -308 -495 -607
-847 -173 -203 -328 -368 -625 -666 -293 -292 -387 -382 -926 -879 -525 -485
-762 -723 -965 -975 -397 -490 -499 -891 -322 -1263 104 -218 266 -371 457
-431 208 -66 443 -55 806 38 96 25 170 47 569 174 411 130 682 193 922 213
175 15 270 5 441 -48 373 -115 543 -150 733 -152 194 -2 289 18 604 126 399
137 617 183 872 183 449 0 907 -165 1473 -531 75 -48 154 -92 177 -98 144 -39
291 108 252 253 -19 73 -46 102 -167 184 -388 262 -794 454 -1157 547 -343 88
-679 98 -1025 29 -150 -30 -219 -50 -545 -159 -341 -114 -445 -132 -570 -100
-84 22 -157 68 -246 155 -94 92 -103 117 -96 275 9 218 134 582 400 1165 l84
185 189 139 c750 552 1465 1205 1963 1794 57 67 107 122 110 122 4 0 21 -28
38 -62 41 -81 133 -254 210 -393 33 -60 82 -150 108 -200 26 -49 55 -103 65
-120 21 -36 241 -443 407 -755 491 -919 801 -1656 907 -2155 47 -220 60 -326
60 -495 0 -331 -104 -555 -339 -733 -146 -109 -274 -153 -485 -164 -227 -12
-520 42 -1071 196 -578 161 -996 253 -1397 306 -277 37 -398 45 -707 52 -526
11 -1010 -38 -1549 -157 -103 -23 -198 -46 -210 -51 -19 -9 -19 -9 4 -5 14 2
117 23 229 45 236 48 470 82 726 107 227 23 838 26 1050 6 524 -49 975 -139
1590 -317 789 -228 870 -249 1115 -281 140 -18 320 -14 430 10 175 38 331 126
471 265 130 129 198 249 252 439 19 69 21 103 21 327 1 217 -2 266 -22 375
-85 470 -279 1012 -627 1755 -125 266 -470 953 -662 1316 -54 102 -179 346
-278 541 l-180 356 34 49 c330 464 520 825 634 1203 77 254 102 445 94 710 -5
194 -34 373 -92 578 -114 405 -295 608 -540 606 -130 -1 -243 -60 -364 -190
-226 -241 -399 -692 -451 -1170 -19 -172 -8 -559 19 -704 49 -261 128 -488
287 -828 l44 -95 -98 -115 c-415 -493 -939 -986 -1555 -1465 -75 -59 -137
-105 -137 -102 0 2 13 64 30 137 171 768 66 1361 -323 1825 -42 50 -104 115
-138 145 l-61 53 32 80 c138 344 205 675 217 1065 8 265 -12 497 -67 785 -10
55 -21 141 -25 190 -12 172 -61 344 -137 483 -22 39 -61 136 -88 215 -26 78
-85 243 -130 367 -207 565 -270 815 -270 1067 0 490 292 1041 733 1384 228
177 449 280 729 341 139 30 441 32 593 4 770 -140 1344 -733 1459 -1508 31
-206 16 -534 -35 -781 -105 -505 -408 -918 -831 -1134 -57 -29 -98 -53 -93
-53 6 0 53 22 106 48 498 251 808 733 889 1382 79 640 -110 1210 -536 1620
-271 261 -597 428 -962 495 -83 16 -425 29 -482 19z m-2055 -3244 c314 -45
578 -280 662 -590 25 -91 25 -319 0 -410 -77 -281 -296 -495 -587 -572 l-85
-23 -1755 0 -1755 0 -3 803 -2 802 1727 0 c1094 0 1754 -4 1798 -10z m3778
-652 c162 -163 273 -712 223 -1098 -33 -250 -103 -464 -247 -755 -110 -224
-341 -588 -359 -568 -29 30 -153 367 -195 527 -54 204 -68 343 -62 596 5 227
22 352 73 555 74 295 203 556 342 695 103 102 159 114 225 48z m-2720 -878 c1
-155 -4 -294 -11 -355 -20 -153 -67 -378 -107 -510 -39 -129 -103 -305 -114
-318 -4 -4 -34 10 -67 32 -337 223 -868 389 -1459 455 -324 37 -393 39 -1607
43 l-1218 4 0 80 0 79 1758 0 c1878 0 1831 -1 2002 48 243 71 480 236 638 447
29 39 78 121 109 183 51 100 58 110 66 90 5 -13 10 -138 10 -278z m-242 -1757
c91 -100 175 -242 230 -388 106 -284 103 -733 -6 -1166 -36 -139 -131 -392
-225 -593 -38 -82 -195 -431 -263 -586 -183 -419 -285 -746 -309 -997 -17
-175 1 -290 67 -447 7 -17 5 -18 -21 -12 -16 3 -99 9 -184 12 -336 13 -601
-45 -1360 -296 -642 -213 -917 -247 -1120 -139 -104 55 -212 184 -264 316 -99
244 -30 513 220 863 194 272 510 602 1179 1231 641 602 1113 1092 1440 1493
149 184 367 479 460 626 48 77 91 140 95 140 5 0 32 -26 61 -57z"/>
<path d="M9888 11963 c7 -3 16 -2 19 1 4 3 -2 6 -13 5 -11 0 -14 -3 -6 -6z"/>
<path d="M5819 2620 c-241 -30 -425 -183 -468 -388 -25 -120 -7 -272 45 -375
66 -130 154 -226 389 -422 287 -239 362 -341 372 -507 18 -286 -205 -463 -513
-407 -183 33 -298 157 -311 334 -5 62 -9 75 -23 75 -21 0 -27 -38 -36 -240 -4
-94 -2 -155 5 -172 13 -35 62 -59 176 -89 118 -31 341 -33 450 -5 115 30 211
83 285 156 116 114 170 250 170 429 0 150 -38 259 -134 387 -60 80 -133 148
-349 322 -196 160 -274 239 -315 321 -24 50 -27 67 -27 156 0 81 4 109 21 146
27 58 80 111 147 147 49 26 59 27 187 27 117 -1 143 -4 194 -24 108 -43 157
-111 181 -253 7 -42 32 -52 39 -15 3 12 7 97 9 189 l4 166 -46 7 c-25 3 -78
13 -118 20 -92 19 -250 26 -334 15z"/>
<path d="M9615 2624 c-435 -47 -758 -285 -920 -679 -64 -157 -79 -240 -79
-435 0 -145 4 -191 23 -270 112 -476 445 -775 924 -831 123 -14 286 -6 407 20
469 103 804 487 861 990 14 119 5 294 -20 411 -89 407 -395 690 -837 774 -83
15 -291 27 -359 20z m191 -104 c308 -39 561 -250 680 -568 53 -143 66 -218 71
-430 8 -288 -27 -460 -128 -639 -52 -91 -169 -213 -252 -262 -127 -75 -317
-119 -457 -106 -523 49 -860 503 -837 1130 5 156 24 257 69 382 124 344 466
542 854 493z"/>
<path d="M13080 2615 c-5 -6 -23 -69 -40 -138 -51 -212 -42 -284 21 -167 37
70 83 114 136 131 24 7 143 13 321 16 l282 5 0 -808 c0 -879 -6 -1031 -42
-1103 -24 -48 -32 -52 -121 -66 -29 -5 -37 -10 -35 -23 3 -16 33 -17 351 -18
291 -1 350 1 354 13 3 8 4 16 1 18 -2 2 -41 9 -87 14 -96 12 -127 28 -147 77
-27 65 -34 273 -34 1083 l0 813 253 -4 c222 -5 260 -8 319 -27 87 -28 124 -68
133 -146 7 -55 19 -75 35 -59 12 12 25 370 14 377 -5 3 -43 -2 -84 -9 -62 -12
-199 -14 -790 -12 -695 3 -717 4 -773 24 -43 16 -59 18 -67 9z"/>
<path d="M402 2574 c-21 -16 -4 -24 74 -35 85 -12 122 -32 142 -77 15 -34 17
-115 17 -907 0 -930 -2 -978 -49 -1031 -15 -18 -39 -28 -84 -35 -50 -9 -62
-15 -60 -28 3 -14 37 -16 348 -16 312 0 345 2 348 16 2 14 -8 18 -50 23 -112
14 -130 19 -158 42 -46 39 -51 85 -57 472 l-5 352 189 0 c136 0 194 -3 205
-12 9 -7 80 -101 158 -208 377 -516 465 -611 615 -665 41 -14 91 -19 265 -22
208 -4 260 2 235 26 -6 5 -50 14 -100 20 -71 9 -108 20 -175 53 -135 65 -271
212 -649 696 l-143 183 79 82 c168 175 245 332 259 527 11 147 -36 278 -135
380 -82 84 -185 132 -341 161 -88 16 -907 19 -928 3z m823 -100 c156 -40 272
-165 321 -344 22 -82 25 -299 5 -380 -39 -157 -127 -263 -246 -295 -104 -28
-350 -10 -412 31 l-23 14 0 479 c0 504 -1 492 45 504 49 12 253 6 310 -9z"/>
<path d="M2140 2582 c-25 -9 -6 -31 38 -41 89 -23 166 -83 254 -198 82 -107
493 -778 544 -888 52 -112 56 -154 52 -525 -3 -292 -6 -340 -21 -373 -20 -43
-56 -63 -130 -72 -38 -5 -48 -10 -45 -23 3 -16 34 -17 356 -18 296 -1 355 1
359 13 3 8 4 16 1 18 -2 2 -44 9 -93 15 -100 12 -126 25 -152 73 -16 29 -18
70 -21 404 l-3 371 25 76 c46 137 385 715 549 934 96 129 166 178 280 197 28
5 37 10 35 23 -3 15 -28 16 -258 15 -140 -1 -261 -2 -267 -2 -25 -2 -12 -21
27 -41 30 -15 40 -27 45 -53 11 -57 -11 -110 -134 -320 -64 -111 -175 -305
-246 -432 -70 -126 -130 -232 -132 -234 -6 -8 -29 30 -242 394 -279 480 -292
503 -308 554 -11 38 -11 48 2 68 9 13 22 23 29 23 17 0 41 28 32 37 -6 7 -557
11 -576 5z"/>
<path d="M6873 2573 c-9 -23 9 -33 60 -33 74 -1 133 -30 155 -77 16 -35 17
-108 17 -903 0 -916 -3 -979 -46 -1034 -11 -14 -34 -28 -52 -31 -65 -12 -72
-13 -85 -14 -8 -1 -12 -9 -10 -18 3 -17 28 -18 338 -20 184 -1 343 1 353 4 16
4 25 33 10 33 -5 0 -45 4 -90 10 -126 14 -147 35 -163 167 -5 41 -10 461 -10
941 -1 748 1 868 14 880 20 20 193 28 268 13 89 -19 176 -67 245 -137 110
-112 157 -249 151 -440 -3 -104 -5 -114 -41 -186 -81 -165 -255 -267 -455
-268 -39 0 -54 -4 -59 -16 -11 -28 19 -35 128 -30 292 13 522 172 613 424 60
168 56 329 -12 465 -74 148 -197 228 -412 268 -92 17 -911 19 -917 2z"/>
<path d="M11202 2574 c-14 -10 -13 -13 4 -21 10 -6 44 -13 75 -16 75 -7 112
-28 135 -74 18 -36 19 -77 22 -803 3 -826 -3 -1029 -37 -1105 -21 -49 -37 -58
-114 -69 -38 -6 -47 -11 -45 -24 3 -15 33 -17 333 -19 182 -1 338 1 348 4 9 2
17 10 17 18 0 9 -19 16 -57 20 -105 11 -122 16 -152 41 -47 39 -52 84 -58 472
l-5 352 189 0 c136 0 194 -4 205 -12 9 -7 53 -65 99 -128 84 -118 292 -396
362 -485 108 -137 208 -223 298 -255 57 -20 88 -23 279 -27 208 -4 260 2 235
25 -6 5 -49 14 -97 20 -238 30 -340 122 -838 762 -62 80 -117 151 -123 158 -7
9 12 34 69 95 254 264 329 561 202 799 -77 144 -213 232 -418 269 -89 16 -907
19 -928 3z m866 -112 c159 -63 262 -210 293 -422 41 -281 -70 -535 -256 -585
-104 -28 -350 -10 -412 31 l-23 14 0 478 c0 262 4 482 8 488 12 20 42 23 192
20 120 -2 154 -6 198 -24z"/>
</g>
</svg>
